<mxfile host="app.diagrams.net" agent="Mozilla/5.0 (Windows NT 10.0; Win64; x64) AppleWebKit/537.36 (KHTML, like Gecko) Chrome/125.0.0.0 Safari/537.36" version="24.7.17">
  <diagram name="Page-1" id="pObF4G0vLJEULFN0KwAD">
    <mxGraphModel dx="1687" dy="918" grid="1" gridSize="10" guides="1" tooltips="1" connect="1" arrows="1" fold="1" page="1" pageScale="1" pageWidth="850" pageHeight="1100" math="0" shadow="0">
      <root>
        <mxCell id="0" />
        <mxCell id="1" parent="0" />
        <mxCell id="2wLdx65qX8DlQpXcOoLZ-3" value="" style="edgeStyle=orthogonalEdgeStyle;rounded=0;orthogonalLoop=1;jettySize=auto;html=1;entryX=0.5;entryY=0;entryDx=0;entryDy=0;" parent="1" source="2wLdx65qX8DlQpXcOoLZ-1" target="2wLdx65qX8DlQpXcOoLZ-18" edge="1">
          <mxGeometry relative="1" as="geometry">
            <mxPoint x="365" y="270" as="targetPoint" />
          </mxGeometry>
        </mxCell>
        <mxCell id="2wLdx65qX8DlQpXcOoLZ-1" value="Start" style="rounded=1;whiteSpace=wrap;html=1;" parent="1" vertex="1">
          <mxGeometry x="300" y="240" width="120" height="60" as="geometry" />
        </mxCell>
        <mxCell id="2wLdx65qX8DlQpXcOoLZ-22" value="" style="edgeStyle=orthogonalEdgeStyle;rounded=0;orthogonalLoop=1;jettySize=auto;html=1;" parent="1" source="2wLdx65qX8DlQpXcOoLZ-18" target="2wLdx65qX8DlQpXcOoLZ-21" edge="1">
          <mxGeometry relative="1" as="geometry" />
        </mxCell>
        <mxCell id="2wLdx65qX8DlQpXcOoLZ-18" value="int k;&lt;div&gt;int b;&lt;/div&gt;" style="shape=parallelogram;perimeter=parallelogramPerimeter;whiteSpace=wrap;html=1;fixedSize=1;" parent="1" vertex="1">
          <mxGeometry x="300" y="350" width="120" height="60" as="geometry" />
        </mxCell>
        <mxCell id="2wLdx65qX8DlQpXcOoLZ-24" value="" style="edgeStyle=orthogonalEdgeStyle;rounded=0;orthogonalLoop=1;jettySize=auto;html=1;" parent="1" source="2wLdx65qX8DlQpXcOoLZ-21" target="2wLdx65qX8DlQpXcOoLZ-23" edge="1">
          <mxGeometry relative="1" as="geometry" />
        </mxCell>
        <mxCell id="2wLdx65qX8DlQpXcOoLZ-25" value="True" style="edgeLabel;html=1;align=center;verticalAlign=middle;resizable=0;points=[];" parent="2wLdx65qX8DlQpXcOoLZ-24" vertex="1" connectable="0">
          <mxGeometry x="-0.1123" y="-1" relative="1" as="geometry">
            <mxPoint as="offset" />
          </mxGeometry>
        </mxCell>
        <mxCell id="2wLdx65qX8DlQpXcOoLZ-33" value="" style="edgeStyle=orthogonalEdgeStyle;rounded=0;orthogonalLoop=1;jettySize=auto;html=1;" parent="1" source="2wLdx65qX8DlQpXcOoLZ-21" edge="1">
          <mxGeometry relative="1" as="geometry">
            <mxPoint x="499.9999999999998" y="490" as="targetPoint" />
          </mxGeometry>
        </mxCell>
        <mxCell id="2wLdx65qX8DlQpXcOoLZ-35" value="False" style="edgeLabel;html=1;align=center;verticalAlign=middle;resizable=0;points=[];" parent="2wLdx65qX8DlQpXcOoLZ-33" vertex="1" connectable="0">
          <mxGeometry x="-0.0752" relative="1" as="geometry">
            <mxPoint as="offset" />
          </mxGeometry>
        </mxCell>
        <mxCell id="2wLdx65qX8DlQpXcOoLZ-21" value="int i=k;i&amp;lt;b,i++" style="shape=hexagon;perimeter=hexagonPerimeter2;whiteSpace=wrap;html=1;fixedSize=1;" parent="1" vertex="1">
          <mxGeometry x="300" y="450" width="120" height="80" as="geometry" />
        </mxCell>
        <mxCell id="2wLdx65qX8DlQpXcOoLZ-27" value="" style="edgeStyle=orthogonalEdgeStyle;rounded=0;orthogonalLoop=1;jettySize=auto;html=1;" parent="1" source="2wLdx65qX8DlQpXcOoLZ-23" target="2wLdx65qX8DlQpXcOoLZ-26" edge="1">
          <mxGeometry relative="1" as="geometry" />
        </mxCell>
        <mxCell id="2wLdx65qX8DlQpXcOoLZ-29" value="true" style="edgeLabel;html=1;align=center;verticalAlign=middle;resizable=0;points=[];" parent="2wLdx65qX8DlQpXcOoLZ-27" vertex="1" connectable="0">
          <mxGeometry x="0.0267" y="-1" relative="1" as="geometry">
            <mxPoint as="offset" />
          </mxGeometry>
        </mxCell>
        <mxCell id="2wLdx65qX8DlQpXcOoLZ-30" style="edgeStyle=orthogonalEdgeStyle;rounded=0;orthogonalLoop=1;jettySize=auto;html=1;entryX=0;entryY=0.5;entryDx=0;entryDy=0;" parent="1" source="2wLdx65qX8DlQpXcOoLZ-23" target="2wLdx65qX8DlQpXcOoLZ-21" edge="1">
          <mxGeometry relative="1" as="geometry">
            <Array as="points">
              <mxPoint x="280" y="640" />
              <mxPoint x="280" y="490" />
            </Array>
          </mxGeometry>
        </mxCell>
        <mxCell id="2wLdx65qX8DlQpXcOoLZ-31" value="False" style="edgeLabel;html=1;align=center;verticalAlign=middle;resizable=0;points=[];" parent="2wLdx65qX8DlQpXcOoLZ-30" vertex="1" connectable="0">
          <mxGeometry x="0.1069" relative="1" as="geometry">
            <mxPoint as="offset" />
          </mxGeometry>
        </mxCell>
        <mxCell id="2wLdx65qX8DlQpXcOoLZ-23" value="i%2==0" style="rhombus;whiteSpace=wrap;html=1;" parent="1" vertex="1">
          <mxGeometry x="320" y="600" width="80" height="80" as="geometry" />
        </mxCell>
        <mxCell id="2wLdx65qX8DlQpXcOoLZ-28" style="edgeStyle=orthogonalEdgeStyle;rounded=0;orthogonalLoop=1;jettySize=auto;html=1;entryX=0;entryY=0.5;entryDx=0;entryDy=0;" parent="1" source="2wLdx65qX8DlQpXcOoLZ-26" target="2wLdx65qX8DlQpXcOoLZ-21" edge="1">
          <mxGeometry relative="1" as="geometry">
            <Array as="points">
              <mxPoint x="220" y="800" />
              <mxPoint x="220" y="490" />
            </Array>
          </mxGeometry>
        </mxCell>
        <mxCell id="2wLdx65qX8DlQpXcOoLZ-26" value="i" style="shape=document;whiteSpace=wrap;html=1;boundedLbl=1;" parent="1" vertex="1">
          <mxGeometry x="300" y="760" width="120" height="80" as="geometry" />
        </mxCell>
        <mxCell id="2wLdx65qX8DlQpXcOoLZ-34" value="End" style="rounded=1;whiteSpace=wrap;html=1;" parent="1" vertex="1">
          <mxGeometry x="500" y="460" width="120" height="60" as="geometry" />
        </mxCell>
        <mxCell id="2wLdx65qX8DlQpXcOoLZ-51" value="" style="edgeStyle=orthogonalEdgeStyle;rounded=0;orthogonalLoop=1;jettySize=auto;html=1;" parent="1" source="2wLdx65qX8DlQpXcOoLZ-49" target="2wLdx65qX8DlQpXcOoLZ-50" edge="1">
          <mxGeometry relative="1" as="geometry" />
        </mxCell>
        <mxCell id="2wLdx65qX8DlQpXcOoLZ-49" value="Start" style="rounded=1;whiteSpace=wrap;html=1;" parent="1" vertex="1">
          <mxGeometry x="960" y="210" width="120" height="60" as="geometry" />
        </mxCell>
        <mxCell id="2wLdx65qX8DlQpXcOoLZ-53" value="" style="edgeStyle=orthogonalEdgeStyle;rounded=0;orthogonalLoop=1;jettySize=auto;html=1;" parent="1" source="2wLdx65qX8DlQpXcOoLZ-50" target="2wLdx65qX8DlQpXcOoLZ-52" edge="1">
          <mxGeometry relative="1" as="geometry" />
        </mxCell>
        <mxCell id="2wLdx65qX8DlQpXcOoLZ-50" value="int num" style="shape=parallelogram;perimeter=parallelogramPerimeter;whiteSpace=wrap;html=1;fixedSize=1;rounded=1;" parent="1" vertex="1">
          <mxGeometry x="960" y="310" width="120" height="60" as="geometry" />
        </mxCell>
        <mxCell id="2wLdx65qX8DlQpXcOoLZ-55" value="" style="edgeStyle=orthogonalEdgeStyle;rounded=0;orthogonalLoop=1;jettySize=auto;html=1;" parent="1" source="2wLdx65qX8DlQpXcOoLZ-52" target="2wLdx65qX8DlQpXcOoLZ-54" edge="1">
          <mxGeometry relative="1" as="geometry" />
        </mxCell>
        <mxCell id="2wLdx65qX8DlQpXcOoLZ-52" value="&lt;div&gt;int firstnum&lt;/div&gt;int digit,&lt;div&gt;int reverseNum&lt;/div&gt;" style="whiteSpace=wrap;html=1;rounded=1;arcSize=0;" parent="1" vertex="1">
          <mxGeometry x="960" y="410" width="120" height="60" as="geometry" />
        </mxCell>
        <mxCell id="2wLdx65qX8DlQpXcOoLZ-58" value="" style="edgeStyle=orthogonalEdgeStyle;rounded=0;orthogonalLoop=1;jettySize=auto;html=1;" parent="1" source="2wLdx65qX8DlQpXcOoLZ-54" target="2wLdx65qX8DlQpXcOoLZ-57" edge="1">
          <mxGeometry relative="1" as="geometry" />
        </mxCell>
        <mxCell id="2wLdx65qX8DlQpXcOoLZ-54" value="&lt;div&gt;&lt;br&gt;&lt;/div&gt;digit=num%10&lt;div&gt;num-=digit&lt;br&gt;&lt;div&gt;num/=10&lt;/div&gt;&lt;div&gt;reverseNum*=10&lt;br&gt;&lt;/div&gt;&lt;div&gt;reverseNum+=digit&lt;/div&gt;&lt;div&gt;&lt;br&gt;&lt;/div&gt;&lt;/div&gt;" style="whiteSpace=wrap;html=1;rounded=1;arcSize=0;" parent="1" vertex="1">
          <mxGeometry x="925" y="520" width="190" height="80" as="geometry" />
        </mxCell>
        <mxCell id="2wLdx65qX8DlQpXcOoLZ-56" value="346" style="text;html=1;align=center;verticalAlign=middle;resizable=0;points=[];autosize=1;strokeColor=none;fillColor=none;" parent="1" vertex="1">
          <mxGeometry x="1140" y="388" width="40" height="30" as="geometry" />
        </mxCell>
        <mxCell id="2wLdx65qX8DlQpXcOoLZ-61" style="edgeStyle=orthogonalEdgeStyle;rounded=0;orthogonalLoop=1;jettySize=auto;html=1;entryX=0.5;entryY=0;entryDx=0;entryDy=0;exitX=0.5;exitY=1;exitDx=0;exitDy=0;" parent="1" source="2wLdx65qX8DlQpXcOoLZ-57" target="2wLdx65qX8DlQpXcOoLZ-64" edge="1">
          <mxGeometry relative="1" as="geometry">
            <mxPoint x="1180" y="720" as="targetPoint" />
            <Array as="points">
              <mxPoint x="1020" y="820" />
              <mxPoint x="1020" y="820" />
            </Array>
          </mxGeometry>
        </mxCell>
        <mxCell id="2wLdx65qX8DlQpXcOoLZ-70" value="true" style="edgeLabel;html=1;align=center;verticalAlign=middle;resizable=0;points=[];" parent="2wLdx65qX8DlQpXcOoLZ-61" vertex="1" connectable="0">
          <mxGeometry x="-0.674" y="-2" relative="1" as="geometry">
            <mxPoint as="offset" />
          </mxGeometry>
        </mxCell>
        <mxCell id="2wLdx65qX8DlQpXcOoLZ-57" value="firstnum==reverseNum" style="rhombus;whiteSpace=wrap;html=1;rounded=1;arcSize=0;" parent="1" vertex="1">
          <mxGeometry x="955" y="640" width="130" height="110" as="geometry" />
        </mxCell>
        <mxCell id="2wLdx65qX8DlQpXcOoLZ-59" style="edgeStyle=orthogonalEdgeStyle;rounded=0;orthogonalLoop=1;jettySize=auto;html=1;entryX=0.447;entryY=0;entryDx=0;entryDy=0;entryPerimeter=0;exitX=0;exitY=0.5;exitDx=0;exitDy=0;" parent="1" source="2wLdx65qX8DlQpXcOoLZ-57" target="2wLdx65qX8DlQpXcOoLZ-54" edge="1">
          <mxGeometry relative="1" as="geometry">
            <Array as="points">
              <mxPoint x="905" y="690" />
              <mxPoint x="905" y="500" />
              <mxPoint x="1010" y="500" />
            </Array>
          </mxGeometry>
        </mxCell>
        <mxCell id="2wLdx65qX8DlQpXcOoLZ-60" value="false" style="edgeLabel;html=1;align=center;verticalAlign=middle;resizable=0;points=[];" parent="2wLdx65qX8DlQpXcOoLZ-59" vertex="1" connectable="0">
          <mxGeometry x="-0.8277" y="-2" relative="1" as="geometry">
            <mxPoint as="offset" />
          </mxGeometry>
        </mxCell>
        <mxCell id="2wLdx65qX8DlQpXcOoLZ-69" value="" style="edgeStyle=orthogonalEdgeStyle;rounded=0;orthogonalLoop=1;jettySize=auto;html=1;exitX=0.494;exitY=0.888;exitDx=0;exitDy=0;exitPerimeter=0;" parent="1" source="2wLdx65qX8DlQpXcOoLZ-64" target="2wLdx65qX8DlQpXcOoLZ-66" edge="1">
          <mxGeometry relative="1" as="geometry" />
        </mxCell>
        <mxCell id="2wLdx65qX8DlQpXcOoLZ-64" value="&lt;br&gt;&lt;span style=&quot;color: rgb(0, 0, 0); font-family: Helvetica; font-size: 12px; font-style: normal; font-variant-ligatures: normal; font-variant-caps: normal; font-weight: 400; letter-spacing: normal; orphans: 2; text-align: center; text-indent: 0px; text-transform: none; widows: 2; word-spacing: 0px; -webkit-text-stroke-width: 0px; white-space: normal; background-color: rgb(251, 251, 251); text-decoration-thickness: initial; text-decoration-style: initial; text-decoration-color: initial; display: inline !important; float: none;&quot;&gt;&lt;br&gt;&lt;/span&gt;&lt;div&gt;&lt;span style=&quot;color: rgb(0, 0, 0); font-family: Helvetica; font-size: 12px; font-style: normal; font-variant-ligatures: normal; font-variant-caps: normal; font-weight: 400; letter-spacing: normal; orphans: 2; text-align: center; text-indent: 0px; text-transform: none; widows: 2; word-spacing: 0px; -webkit-text-stroke-width: 0px; white-space: normal; background-color: rgb(251, 251, 251); text-decoration-thickness: initial; text-decoration-style: initial; text-decoration-color: initial; display: inline !important; float: none;&quot;&gt;reverseNum&lt;/span&gt;&lt;br&gt;&lt;br&gt;&lt;/div&gt;" style="shape=document;whiteSpace=wrap;html=1;boundedLbl=1;" parent="1" vertex="1">
          <mxGeometry x="960" y="780" width="120" height="80" as="geometry" />
        </mxCell>
        <mxCell id="2wLdx65qX8DlQpXcOoLZ-66" value="end" style="rounded=1;whiteSpace=wrap;html=1;" parent="1" vertex="1">
          <mxGeometry x="960" y="930" width="120" height="60" as="geometry" />
        </mxCell>
        <mxCell id="2wLdx65qX8DlQpXcOoLZ-73" value="" style="edgeStyle=orthogonalEdgeStyle;rounded=0;orthogonalLoop=1;jettySize=auto;html=1;" parent="1" source="2wLdx65qX8DlQpXcOoLZ-71" target="2wLdx65qX8DlQpXcOoLZ-72" edge="1">
          <mxGeometry relative="1" as="geometry" />
        </mxCell>
        <mxCell id="2wLdx65qX8DlQpXcOoLZ-71" value="Start" style="rounded=1;whiteSpace=wrap;html=1;" parent="1" vertex="1">
          <mxGeometry x="1880" y="90" width="120" height="60" as="geometry" />
        </mxCell>
        <mxCell id="2wLdx65qX8DlQpXcOoLZ-75" value="" style="edgeStyle=orthogonalEdgeStyle;rounded=0;orthogonalLoop=1;jettySize=auto;html=1;" parent="1" source="2wLdx65qX8DlQpXcOoLZ-85" edge="1">
          <mxGeometry relative="1" as="geometry">
            <mxPoint x="1940" y="460" as="targetPoint" />
          </mxGeometry>
        </mxCell>
        <mxCell id="2wLdx65qX8DlQpXcOoLZ-94" value="false" style="edgeLabel;html=1;align=center;verticalAlign=middle;resizable=0;points=[];" parent="2wLdx65qX8DlQpXcOoLZ-75" vertex="1" connectable="0">
          <mxGeometry x="-0.0622" relative="1" as="geometry">
            <mxPoint y="-4" as="offset" />
          </mxGeometry>
        </mxCell>
        <mxCell id="2wLdx65qX8DlQpXcOoLZ-90" value="" style="edgeStyle=orthogonalEdgeStyle;rounded=0;orthogonalLoop=1;jettySize=auto;html=1;" parent="1" source="2wLdx65qX8DlQpXcOoLZ-72" target="2wLdx65qX8DlQpXcOoLZ-85" edge="1">
          <mxGeometry relative="1" as="geometry" />
        </mxCell>
        <mxCell id="2wLdx65qX8DlQpXcOoLZ-72" value="int num" style="shape=parallelogram;perimeter=parallelogramPerimeter;whiteSpace=wrap;html=1;fixedSize=1;rounded=1;" parent="1" vertex="1">
          <mxGeometry x="1880" y="190" width="120" height="60" as="geometry" />
        </mxCell>
        <mxCell id="2wLdx65qX8DlQpXcOoLZ-89" value="" style="edgeStyle=orthogonalEdgeStyle;rounded=0;orthogonalLoop=1;jettySize=auto;html=1;" parent="1" source="2wLdx65qX8DlQpXcOoLZ-85" target="2wLdx65qX8DlQpXcOoLZ-88" edge="1">
          <mxGeometry relative="1" as="geometry" />
        </mxCell>
        <mxCell id="2wLdx65qX8DlQpXcOoLZ-93" value="true" style="edgeLabel;html=1;align=center;verticalAlign=middle;resizable=0;points=[];" parent="2wLdx65qX8DlQpXcOoLZ-89" vertex="1" connectable="0">
          <mxGeometry x="-0.5872" y="-1" relative="1" as="geometry">
            <mxPoint as="offset" />
          </mxGeometry>
        </mxCell>
        <mxCell id="2wLdx65qX8DlQpXcOoLZ-85" value="num==1" style="rhombus;whiteSpace=wrap;html=1;" parent="1" vertex="1">
          <mxGeometry x="1900" y="350" width="80" height="80" as="geometry" />
        </mxCell>
        <mxCell id="2wLdx65qX8DlQpXcOoLZ-124" style="edgeStyle=orthogonalEdgeStyle;rounded=0;orthogonalLoop=1;jettySize=auto;html=1;entryX=0;entryY=0.5;entryDx=0;entryDy=0;" parent="1" source="2wLdx65qX8DlQpXcOoLZ-88" target="2wLdx65qX8DlQpXcOoLZ-120" edge="1">
          <mxGeometry relative="1" as="geometry">
            <Array as="points">
              <mxPoint x="1630" y="800" />
            </Array>
          </mxGeometry>
        </mxCell>
        <mxCell id="2wLdx65qX8DlQpXcOoLZ-88" value="eded sertlere uygun deyil" style="shape=document;whiteSpace=wrap;html=1;boundedLbl=1;" parent="1" vertex="1">
          <mxGeometry x="1600" y="350" width="120" height="80" as="geometry" />
        </mxCell>
        <mxCell id="2wLdx65qX8DlQpXcOoLZ-97" value="" style="edgeStyle=orthogonalEdgeStyle;rounded=0;orthogonalLoop=1;jettySize=auto;html=1;" parent="1" source="2wLdx65qX8DlQpXcOoLZ-95" target="2wLdx65qX8DlQpXcOoLZ-96" edge="1">
          <mxGeometry relative="1" as="geometry" />
        </mxCell>
        <mxCell id="2wLdx65qX8DlQpXcOoLZ-99" value="true" style="edgeLabel;html=1;align=center;verticalAlign=middle;resizable=0;points=[];" parent="2wLdx65qX8DlQpXcOoLZ-97" vertex="1" connectable="0">
          <mxGeometry x="0.1569" y="1" relative="1" as="geometry">
            <mxPoint x="-1" y="-9" as="offset" />
          </mxGeometry>
        </mxCell>
        <mxCell id="2wLdx65qX8DlQpXcOoLZ-111" value="" style="edgeStyle=orthogonalEdgeStyle;rounded=0;orthogonalLoop=1;jettySize=auto;html=1;" parent="1" source="2wLdx65qX8DlQpXcOoLZ-95" target="2wLdx65qX8DlQpXcOoLZ-110" edge="1">
          <mxGeometry relative="1" as="geometry" />
        </mxCell>
        <mxCell id="2wLdx65qX8DlQpXcOoLZ-119" value="false" style="edgeLabel;html=1;align=center;verticalAlign=middle;resizable=0;points=[];" parent="2wLdx65qX8DlQpXcOoLZ-111" vertex="1" connectable="0">
          <mxGeometry x="-0.0945" y="2" relative="1" as="geometry">
            <mxPoint y="2" as="offset" />
          </mxGeometry>
        </mxCell>
        <mxCell id="2wLdx65qX8DlQpXcOoLZ-95" value="int i=2; i&amp;lt;=num;i++" style="shape=hexagon;perimeter=hexagonPerimeter2;whiteSpace=wrap;html=1;fixedSize=1;" parent="1" vertex="1">
          <mxGeometry x="1880" y="460" width="120" height="80" as="geometry" />
        </mxCell>
        <mxCell id="2wLdx65qX8DlQpXcOoLZ-102" value="" style="edgeStyle=orthogonalEdgeStyle;rounded=0;orthogonalLoop=1;jettySize=auto;html=1;" parent="1" source="2wLdx65qX8DlQpXcOoLZ-96" target="2wLdx65qX8DlQpXcOoLZ-101" edge="1">
          <mxGeometry relative="1" as="geometry" />
        </mxCell>
        <mxCell id="2wLdx65qX8DlQpXcOoLZ-103" value="true" style="edgeLabel;html=1;align=center;verticalAlign=middle;resizable=0;points=[];" parent="2wLdx65qX8DlQpXcOoLZ-102" vertex="1" connectable="0">
          <mxGeometry x="-0.0519" y="-1" relative="1" as="geometry">
            <mxPoint as="offset" />
          </mxGeometry>
        </mxCell>
        <mxCell id="2wLdx65qX8DlQpXcOoLZ-96" value="num%i==0" style="rhombus;whiteSpace=wrap;html=1;" parent="1" vertex="1">
          <mxGeometry x="1900" y="590" width="80" height="80" as="geometry" />
        </mxCell>
        <mxCell id="2wLdx65qX8DlQpXcOoLZ-98" value="int count" style="rounded=0;whiteSpace=wrap;html=1;" parent="1" vertex="1">
          <mxGeometry x="1895" y="270" width="90" height="50" as="geometry" />
        </mxCell>
        <mxCell id="2wLdx65qX8DlQpXcOoLZ-101" value="count++" style="whiteSpace=wrap;html=1;" parent="1" vertex="1">
          <mxGeometry x="1700" y="600" width="120" height="60" as="geometry" />
        </mxCell>
        <mxCell id="2wLdx65qX8DlQpXcOoLZ-105" style="edgeStyle=orthogonalEdgeStyle;rounded=0;orthogonalLoop=1;jettySize=auto;html=1;exitX=1;exitY=0.5;exitDx=0;exitDy=0;entryX=0.972;entryY=0.506;entryDx=0;entryDy=0;entryPerimeter=0;" parent="1" source="2wLdx65qX8DlQpXcOoLZ-96" target="2wLdx65qX8DlQpXcOoLZ-95" edge="1">
          <mxGeometry relative="1" as="geometry">
            <Array as="points">
              <mxPoint x="1997" y="630" />
              <mxPoint x="1997" y="565" />
              <mxPoint x="1997" y="565" />
            </Array>
          </mxGeometry>
        </mxCell>
        <mxCell id="2wLdx65qX8DlQpXcOoLZ-106" value="false" style="edgeLabel;html=1;align=center;verticalAlign=middle;resizable=0;points=[];" parent="2wLdx65qX8DlQpXcOoLZ-105" vertex="1" connectable="0">
          <mxGeometry x="0.1049" relative="1" as="geometry">
            <mxPoint as="offset" />
          </mxGeometry>
        </mxCell>
        <mxCell id="2wLdx65qX8DlQpXcOoLZ-113" value="" style="edgeStyle=orthogonalEdgeStyle;rounded=0;orthogonalLoop=1;jettySize=auto;html=1;" parent="1" source="2wLdx65qX8DlQpXcOoLZ-110" target="2wLdx65qX8DlQpXcOoLZ-112" edge="1">
          <mxGeometry relative="1" as="geometry" />
        </mxCell>
        <mxCell id="2wLdx65qX8DlQpXcOoLZ-114" value="true" style="edgeLabel;html=1;align=center;verticalAlign=middle;resizable=0;points=[];" parent="2wLdx65qX8DlQpXcOoLZ-113" vertex="1" connectable="0">
          <mxGeometry x="-0.1904" y="1" relative="1" as="geometry">
            <mxPoint as="offset" />
          </mxGeometry>
        </mxCell>
        <mxCell id="2wLdx65qX8DlQpXcOoLZ-115" style="edgeStyle=orthogonalEdgeStyle;rounded=0;orthogonalLoop=1;jettySize=auto;html=1;" parent="1" source="2wLdx65qX8DlQpXcOoLZ-110" edge="1">
          <mxGeometry relative="1" as="geometry">
            <mxPoint x="2270.769230769231" y="710" as="targetPoint" />
          </mxGeometry>
        </mxCell>
        <mxCell id="2wLdx65qX8DlQpXcOoLZ-117" value="false" style="edgeLabel;html=1;align=center;verticalAlign=middle;resizable=0;points=[];" parent="2wLdx65qX8DlQpXcOoLZ-115" vertex="1" connectable="0">
          <mxGeometry x="0.3086" y="-1" relative="1" as="geometry">
            <mxPoint as="offset" />
          </mxGeometry>
        </mxCell>
        <mxCell id="2wLdx65qX8DlQpXcOoLZ-110" value="count&amp;gt;2" style="rhombus;whiteSpace=wrap;html=1;" parent="1" vertex="1">
          <mxGeometry x="2070" y="460" width="80" height="80" as="geometry" />
        </mxCell>
        <mxCell id="2wLdx65qX8DlQpXcOoLZ-112" value="murekkeb" style="shape=document;whiteSpace=wrap;html=1;boundedLbl=1;" parent="1" vertex="1">
          <mxGeometry x="2050" y="620" width="120" height="80" as="geometry" />
        </mxCell>
        <mxCell id="2wLdx65qX8DlQpXcOoLZ-122" style="edgeStyle=orthogonalEdgeStyle;rounded=0;orthogonalLoop=1;jettySize=auto;html=1;entryX=1;entryY=0.5;entryDx=0;entryDy=0;" parent="1" source="2wLdx65qX8DlQpXcOoLZ-116" target="2wLdx65qX8DlQpXcOoLZ-120" edge="1">
          <mxGeometry relative="1" as="geometry" />
        </mxCell>
        <mxCell id="2wLdx65qX8DlQpXcOoLZ-116" value="sade" style="shape=document;whiteSpace=wrap;html=1;boundedLbl=1;" parent="1" vertex="1">
          <mxGeometry x="2210" y="710" width="120" height="80" as="geometry" />
        </mxCell>
        <mxCell id="2wLdx65qX8DlQpXcOoLZ-118" style="edgeStyle=orthogonalEdgeStyle;rounded=0;orthogonalLoop=1;jettySize=auto;html=1;entryX=0;entryY=0.5;entryDx=0;entryDy=0;exitX=0.5;exitY=0;exitDx=0;exitDy=0;" parent="1" source="2wLdx65qX8DlQpXcOoLZ-101" target="2wLdx65qX8DlQpXcOoLZ-95" edge="1">
          <mxGeometry relative="1" as="geometry" />
        </mxCell>
        <mxCell id="2wLdx65qX8DlQpXcOoLZ-120" value="End" style="rounded=1;whiteSpace=wrap;html=1;" parent="1" vertex="1">
          <mxGeometry x="1910" y="770" width="120" height="60" as="geometry" />
        </mxCell>
        <mxCell id="2wLdx65qX8DlQpXcOoLZ-121" style="edgeStyle=orthogonalEdgeStyle;rounded=0;orthogonalLoop=1;jettySize=auto;html=1;entryX=0.524;entryY=0.033;entryDx=0;entryDy=0;entryPerimeter=0;" parent="1" source="2wLdx65qX8DlQpXcOoLZ-112" target="2wLdx65qX8DlQpXcOoLZ-120" edge="1">
          <mxGeometry relative="1" as="geometry" />
        </mxCell>
        <mxCell id="2wLdx65qX8DlQpXcOoLZ-127" value="" style="edgeStyle=orthogonalEdgeStyle;rounded=0;orthogonalLoop=1;jettySize=auto;html=1;" parent="1" source="2wLdx65qX8DlQpXcOoLZ-125" target="2wLdx65qX8DlQpXcOoLZ-126" edge="1">
          <mxGeometry relative="1" as="geometry" />
        </mxCell>
        <mxCell id="2wLdx65qX8DlQpXcOoLZ-125" value="Start" style="rounded=1;whiteSpace=wrap;html=1;" parent="1" vertex="1">
          <mxGeometry x="1930" y="1230" width="120" height="60" as="geometry" />
        </mxCell>
        <mxCell id="2wLdx65qX8DlQpXcOoLZ-129" value="" style="edgeStyle=orthogonalEdgeStyle;rounded=0;orthogonalLoop=1;jettySize=auto;html=1;" parent="1" source="2wLdx65qX8DlQpXcOoLZ-133" target="2wLdx65qX8DlQpXcOoLZ-128" edge="1">
          <mxGeometry relative="1" as="geometry" />
        </mxCell>
        <mxCell id="2wLdx65qX8DlQpXcOoLZ-138" value="true" style="edgeLabel;html=1;align=center;verticalAlign=middle;resizable=0;points=[];" parent="2wLdx65qX8DlQpXcOoLZ-129" vertex="1" connectable="0">
          <mxGeometry x="0.1364" relative="1" as="geometry">
            <mxPoint as="offset" />
          </mxGeometry>
        </mxCell>
        <mxCell id="2wLdx65qX8DlQpXcOoLZ-126" value="int num" style="shape=parallelogram;perimeter=parallelogramPerimeter;whiteSpace=wrap;html=1;fixedSize=1;rounded=1;" parent="1" vertex="1">
          <mxGeometry x="1930" y="1340" width="120" height="60" as="geometry" />
        </mxCell>
        <mxCell id="2wLdx65qX8DlQpXcOoLZ-131" value="" style="edgeStyle=orthogonalEdgeStyle;rounded=0;orthogonalLoop=1;jettySize=auto;html=1;" parent="1" source="2wLdx65qX8DlQpXcOoLZ-128" target="2wLdx65qX8DlQpXcOoLZ-130" edge="1">
          <mxGeometry relative="1" as="geometry" />
        </mxCell>
        <mxCell id="2wLdx65qX8DlQpXcOoLZ-128" value="int qiymet" style="whiteSpace=wrap;html=1;rounded=1;" parent="1" vertex="1">
          <mxGeometry x="1930" y="1630" width="120" height="60" as="geometry" />
        </mxCell>
        <mxCell id="2wLdx65qX8DlQpXcOoLZ-142" value="" style="edgeStyle=orthogonalEdgeStyle;rounded=0;orthogonalLoop=1;jettySize=auto;html=1;" parent="1" source="2wLdx65qX8DlQpXcOoLZ-130" target="2wLdx65qX8DlQpXcOoLZ-141" edge="1">
          <mxGeometry relative="1" as="geometry" />
        </mxCell>
        <mxCell id="2wLdx65qX8DlQpXcOoLZ-149" value="true" style="edgeLabel;html=1;align=center;verticalAlign=middle;resizable=0;points=[];" parent="2wLdx65qX8DlQpXcOoLZ-142" vertex="1" connectable="0">
          <mxGeometry x="-0.0455" y="-3" relative="1" as="geometry">
            <mxPoint as="offset" />
          </mxGeometry>
        </mxCell>
        <mxCell id="2wLdx65qX8DlQpXcOoLZ-150" style="edgeStyle=orthogonalEdgeStyle;rounded=0;orthogonalLoop=1;jettySize=auto;html=1;" parent="1" source="2wLdx65qX8DlQpXcOoLZ-130" edge="1">
          <mxGeometry relative="1" as="geometry">
            <mxPoint x="2120" y="2120" as="targetPoint" />
          </mxGeometry>
        </mxCell>
        <mxCell id="2wLdx65qX8DlQpXcOoLZ-151" value="false" style="edgeLabel;html=1;align=center;verticalAlign=middle;resizable=0;points=[];" parent="2wLdx65qX8DlQpXcOoLZ-150" vertex="1" connectable="0">
          <mxGeometry x="-0.0309" y="2" relative="1" as="geometry">
            <mxPoint as="offset" />
          </mxGeometry>
        </mxCell>
        <mxCell id="2wLdx65qX8DlQpXcOoLZ-130" value="i=2;i&amp;lt;num;i++" style="shape=hexagon;perimeter=hexagonPerimeter2;whiteSpace=wrap;html=1;fixedSize=1;rounded=1;" parent="1" vertex="1">
          <mxGeometry x="1907.5" y="1760" width="165" height="100" as="geometry" />
        </mxCell>
        <mxCell id="2wLdx65qX8DlQpXcOoLZ-135" value="" style="edgeStyle=orthogonalEdgeStyle;rounded=0;orthogonalLoop=1;jettySize=auto;html=1;" parent="1" source="2wLdx65qX8DlQpXcOoLZ-133" target="2wLdx65qX8DlQpXcOoLZ-134" edge="1">
          <mxGeometry relative="1" as="geometry" />
        </mxCell>
        <mxCell id="2wLdx65qX8DlQpXcOoLZ-139" value="false" style="edgeLabel;html=1;align=center;verticalAlign=middle;resizable=0;points=[];" parent="2wLdx65qX8DlQpXcOoLZ-135" vertex="1" connectable="0">
          <mxGeometry x="-0.0719" y="1" relative="1" as="geometry">
            <mxPoint as="offset" />
          </mxGeometry>
        </mxCell>
        <mxCell id="2wLdx65qX8DlQpXcOoLZ-134" value="eded sertlere uygun deyil" style="shape=document;whiteSpace=wrap;html=1;boundedLbl=1;" parent="1" vertex="1">
          <mxGeometry x="2240" y="1470" width="120" height="80" as="geometry" />
        </mxCell>
        <mxCell id="2wLdx65qX8DlQpXcOoLZ-136" value="" style="edgeStyle=orthogonalEdgeStyle;rounded=0;orthogonalLoop=1;jettySize=auto;html=1;" parent="1" source="2wLdx65qX8DlQpXcOoLZ-126" target="2wLdx65qX8DlQpXcOoLZ-133" edge="1">
          <mxGeometry relative="1" as="geometry">
            <mxPoint x="1990" y="1430" as="sourcePoint" />
            <mxPoint x="1990" y="1630" as="targetPoint" />
          </mxGeometry>
        </mxCell>
        <mxCell id="2wLdx65qX8DlQpXcOoLZ-133" value="num==1" style="rhombus;whiteSpace=wrap;html=1;" parent="1" vertex="1">
          <mxGeometry x="1950" y="1470" width="80" height="80" as="geometry" />
        </mxCell>
        <mxCell id="2wLdx65qX8DlQpXcOoLZ-144" value="" style="edgeStyle=orthogonalEdgeStyle;rounded=0;orthogonalLoop=1;jettySize=auto;html=1;" parent="1" source="2wLdx65qX8DlQpXcOoLZ-141" target="2wLdx65qX8DlQpXcOoLZ-143" edge="1">
          <mxGeometry relative="1" as="geometry" />
        </mxCell>
        <mxCell id="2wLdx65qX8DlQpXcOoLZ-146" value="true" style="edgeLabel;html=1;align=center;verticalAlign=middle;resizable=0;points=[];" parent="2wLdx65qX8DlQpXcOoLZ-144" vertex="1" connectable="0">
          <mxGeometry x="-0.1984" relative="1" as="geometry">
            <mxPoint as="offset" />
          </mxGeometry>
        </mxCell>
        <mxCell id="2wLdx65qX8DlQpXcOoLZ-147" style="edgeStyle=orthogonalEdgeStyle;rounded=0;orthogonalLoop=1;jettySize=auto;html=1;entryX=0;entryY=0.5;entryDx=0;entryDy=0;" parent="1" source="2wLdx65qX8DlQpXcOoLZ-141" target="2wLdx65qX8DlQpXcOoLZ-130" edge="1">
          <mxGeometry relative="1" as="geometry">
            <Array as="points">
              <mxPoint x="1888" y="2000" />
              <mxPoint x="1888" y="1810" />
            </Array>
          </mxGeometry>
        </mxCell>
        <mxCell id="2wLdx65qX8DlQpXcOoLZ-148" value="false" style="edgeLabel;html=1;align=center;verticalAlign=middle;resizable=0;points=[];" parent="2wLdx65qX8DlQpXcOoLZ-147" vertex="1" connectable="0">
          <mxGeometry x="0.0999" y="1" relative="1" as="geometry">
            <mxPoint as="offset" />
          </mxGeometry>
        </mxCell>
        <mxCell id="2wLdx65qX8DlQpXcOoLZ-141" value="i%2==0" style="rhombus;whiteSpace=wrap;html=1;rounded=1;" parent="1" vertex="1">
          <mxGeometry x="1935" y="1940" width="110" height="110" as="geometry" />
        </mxCell>
        <mxCell id="2wLdx65qX8DlQpXcOoLZ-145" style="edgeStyle=orthogonalEdgeStyle;rounded=0;orthogonalLoop=1;jettySize=auto;html=1;entryX=0.625;entryY=0;entryDx=0;entryDy=0;" parent="1" source="2wLdx65qX8DlQpXcOoLZ-143" target="2wLdx65qX8DlQpXcOoLZ-130" edge="1">
          <mxGeometry relative="1" as="geometry">
            <Array as="points">
              <mxPoint x="2220" y="1740" />
              <mxPoint x="2011" y="1740" />
            </Array>
          </mxGeometry>
        </mxCell>
        <mxCell id="2wLdx65qX8DlQpXcOoLZ-143" value="qiymet++" style="whiteSpace=wrap;html=1;rounded=1;" parent="1" vertex="1">
          <mxGeometry x="2160" y="1965" width="120" height="60" as="geometry" />
        </mxCell>
        <mxCell id="t5xPBwRTI0q69V6BStAq-3" value="" style="edgeStyle=orthogonalEdgeStyle;rounded=0;orthogonalLoop=1;jettySize=auto;html=1;" edge="1" parent="1" source="t5xPBwRTI0q69V6BStAq-1" target="t5xPBwRTI0q69V6BStAq-2">
          <mxGeometry relative="1" as="geometry" />
        </mxCell>
        <mxCell id="t5xPBwRTI0q69V6BStAq-1" value="start" style="rounded=0;whiteSpace=wrap;html=1;" vertex="1" parent="1">
          <mxGeometry x="180" y="1180" width="120" height="60" as="geometry" />
        </mxCell>
        <mxCell id="t5xPBwRTI0q69V6BStAq-5" value="" style="edgeStyle=orthogonalEdgeStyle;rounded=0;orthogonalLoop=1;jettySize=auto;html=1;" edge="1" parent="1" source="t5xPBwRTI0q69V6BStAq-2" target="t5xPBwRTI0q69V6BStAq-4">
          <mxGeometry relative="1" as="geometry" />
        </mxCell>
        <mxCell id="t5xPBwRTI0q69V6BStAq-2" value="int eded" style="shape=parallelogram;perimeter=parallelogramPerimeter;whiteSpace=wrap;html=1;fixedSize=1;rounded=0;" vertex="1" parent="1">
          <mxGeometry x="180" y="1300" width="120" height="60" as="geometry" />
        </mxCell>
        <mxCell id="t5xPBwRTI0q69V6BStAq-18" value="" style="edgeStyle=orthogonalEdgeStyle;rounded=0;orthogonalLoop=1;jettySize=auto;html=1;" edge="1" parent="1" source="t5xPBwRTI0q69V6BStAq-4" target="t5xPBwRTI0q69V6BStAq-17">
          <mxGeometry relative="1" as="geometry" />
        </mxCell>
        <mxCell id="t5xPBwRTI0q69V6BStAq-4" value="int two=2,&lt;div&gt;int count=1&lt;/div&gt;" style="rounded=0;whiteSpace=wrap;html=1;" vertex="1" parent="1">
          <mxGeometry x="180" y="1430" width="120" height="60" as="geometry" />
        </mxCell>
        <mxCell id="t5xPBwRTI0q69V6BStAq-6" style="edgeStyle=orthogonalEdgeStyle;rounded=0;orthogonalLoop=1;jettySize=auto;html=1;exitX=0.5;exitY=1;exitDx=0;exitDy=0;entryX=0.658;entryY=0.967;entryDx=0;entryDy=0;entryPerimeter=0;" edge="1" parent="1" source="t5xPBwRTI0q69V6BStAq-2" target="t5xPBwRTI0q69V6BStAq-2">
          <mxGeometry relative="1" as="geometry" />
        </mxCell>
        <mxCell id="t5xPBwRTI0q69V6BStAq-14" value="" style="edgeStyle=orthogonalEdgeStyle;rounded=0;orthogonalLoop=1;jettySize=auto;html=1;" edge="1" parent="1" source="t5xPBwRTI0q69V6BStAq-9" target="t5xPBwRTI0q69V6BStAq-10">
          <mxGeometry relative="1" as="geometry" />
        </mxCell>
        <mxCell id="t5xPBwRTI0q69V6BStAq-16" value="false" style="edgeLabel;html=1;align=center;verticalAlign=middle;resizable=0;points=[];" vertex="1" connectable="0" parent="t5xPBwRTI0q69V6BStAq-14">
          <mxGeometry y="-3" relative="1" as="geometry">
            <mxPoint as="offset" />
          </mxGeometry>
        </mxCell>
        <mxCell id="t5xPBwRTI0q69V6BStAq-22" value="" style="edgeStyle=orthogonalEdgeStyle;rounded=0;orthogonalLoop=1;jettySize=auto;html=1;" edge="1" parent="1" source="t5xPBwRTI0q69V6BStAq-9" target="t5xPBwRTI0q69V6BStAq-21">
          <mxGeometry relative="1" as="geometry" />
        </mxCell>
        <mxCell id="t5xPBwRTI0q69V6BStAq-23" value="true" style="edgeLabel;html=1;align=center;verticalAlign=middle;resizable=0;points=[];" vertex="1" connectable="0" parent="t5xPBwRTI0q69V6BStAq-22">
          <mxGeometry x="0.1158" y="3" relative="1" as="geometry">
            <mxPoint as="offset" />
          </mxGeometry>
        </mxCell>
        <mxCell id="t5xPBwRTI0q69V6BStAq-9" value="eded==two" style="rhombus;whiteSpace=wrap;html=1;" vertex="1" parent="1">
          <mxGeometry x="165" y="1710" width="150" height="150" as="geometry" />
        </mxCell>
        <mxCell id="t5xPBwRTI0q69V6BStAq-15" style="edgeStyle=orthogonalEdgeStyle;rounded=0;orthogonalLoop=1;jettySize=auto;html=1;entryX=0;entryY=0.5;entryDx=0;entryDy=0;" edge="1" parent="1" source="t5xPBwRTI0q69V6BStAq-10" target="t5xPBwRTI0q69V6BStAq-17">
          <mxGeometry relative="1" as="geometry">
            <Array as="points">
              <mxPoint x="130" y="1960" />
              <mxPoint x="130" y="1595" />
            </Array>
          </mxGeometry>
        </mxCell>
        <mxCell id="t5xPBwRTI0q69V6BStAq-10" value="two+=two&lt;div&gt;count++&lt;/div&gt;" style="rounded=1;whiteSpace=wrap;html=1;arcSize=0;" vertex="1" parent="1">
          <mxGeometry x="150" y="1920" width="180" height="90" as="geometry" />
        </mxCell>
        <mxCell id="t5xPBwRTI0q69V6BStAq-19" value="" style="edgeStyle=orthogonalEdgeStyle;rounded=0;orthogonalLoop=1;jettySize=auto;html=1;" edge="1" parent="1" source="t5xPBwRTI0q69V6BStAq-17" target="t5xPBwRTI0q69V6BStAq-9">
          <mxGeometry relative="1" as="geometry" />
        </mxCell>
        <mxCell id="t5xPBwRTI0q69V6BStAq-20" value="false" style="edgeLabel;html=1;align=center;verticalAlign=middle;resizable=0;points=[];" vertex="1" connectable="0" parent="t5xPBwRTI0q69V6BStAq-19">
          <mxGeometry x="-0.08" y="4" relative="1" as="geometry">
            <mxPoint as="offset" />
          </mxGeometry>
        </mxCell>
        <mxCell id="t5xPBwRTI0q69V6BStAq-29" style="edgeStyle=orthogonalEdgeStyle;rounded=0;orthogonalLoop=1;jettySize=auto;html=1;entryX=0.5;entryY=0;entryDx=0;entryDy=0;" edge="1" parent="1" source="t5xPBwRTI0q69V6BStAq-17" target="t5xPBwRTI0q69V6BStAq-21">
          <mxGeometry relative="1" as="geometry" />
        </mxCell>
        <mxCell id="t5xPBwRTI0q69V6BStAq-30" value="true" style="edgeLabel;html=1;align=center;verticalAlign=middle;resizable=0;points=[];" vertex="1" connectable="0" parent="t5xPBwRTI0q69V6BStAq-29">
          <mxGeometry x="-0.2923" y="2" relative="1" as="geometry">
            <mxPoint as="offset" />
          </mxGeometry>
        </mxCell>
        <mxCell id="t5xPBwRTI0q69V6BStAq-17" value="eded&amp;lt;two" style="rhombus;whiteSpace=wrap;html=1;rounded=0;" vertex="1" parent="1">
          <mxGeometry x="185" y="1530" width="110" height="130" as="geometry" />
        </mxCell>
        <mxCell id="t5xPBwRTI0q69V6BStAq-28" style="edgeStyle=orthogonalEdgeStyle;rounded=0;orthogonalLoop=1;jettySize=auto;html=1;exitX=0.25;exitY=0.938;exitDx=0;exitDy=0;exitPerimeter=0;" edge="1" parent="1" source="t5xPBwRTI0q69V6BStAq-21" target="t5xPBwRTI0q69V6BStAq-27">
          <mxGeometry relative="1" as="geometry" />
        </mxCell>
        <mxCell id="t5xPBwRTI0q69V6BStAq-21" value="count" style="shape=document;whiteSpace=wrap;html=1;boundedLbl=1;" vertex="1" parent="1">
          <mxGeometry x="410" y="1745" width="120" height="80" as="geometry" />
        </mxCell>
        <mxCell id="t5xPBwRTI0q69V6BStAq-27" value="End" style="rounded=1;whiteSpace=wrap;html=1;" vertex="1" parent="1">
          <mxGeometry x="510" y="1965" width="130" height="80" as="geometry" />
        </mxCell>
      </root>
    </mxGraphModel>
  </diagram>
</mxfile>
